<svg width="131" height="24" viewBox="0 0 131 24" fill="none" xmlns="http://www.w3.org/2000/svg">
<path d="M54.499 5.5752C60.6822 5.5752 63.9938 9.69771 63.2168 16.0498H50.7822C51.2214 18.5837 52.9785 19.4286 54.5664 19.4287C55.9517 19.4287 57.2022 18.8203 57.3711 18.1445H62.9463C61.4934 22.537 57.5064 23.9902 54.7695 23.9902C49.7013 23.9902 45.5791 21.2192 45.5791 14.7656C45.5793 8.85301 49.431 5.57529 54.499 5.5752ZM80.0283 5.5752C82.7652 5.5752 84.3877 6.52131 85.5703 7.60254L85.9082 5.94727H91.0098V23.6523H85.874L85.2324 19.4287H84.793C85.1646 22.5035 82.3259 23.9902 80.0283 23.9902C74.4196 23.9901 71.6152 19.3946 71.6152 14.7656C71.6154 10.1706 74.4198 5.57535 80.0283 5.5752ZM130.441 23.6514H125.305L124.663 19.4287H124.224C124.392 22.7057 121.757 23.9891 119.46 23.9893C113.851 23.9893 111.046 19.3946 111.046 14.7656C111.046 10.1704 113.851 5.5752 119.46 5.5752C122.197 5.57527 123.818 6.52135 125.001 7.60254V0H130.475L130.441 23.6514ZM18.2344 12.4316C19.8464 12.5509 21.5809 13.088 23.2129 13.2168V15.124L17.5693 14.251L23.2129 17.2305V19.2578L16.6943 16.0391L23.2129 22.6357V23.9482H21.9014L15.3047 17.4287L18.5234 23.9482H16.4961L13.5156 18.3037L14.3896 23.9482H12.4814C12.3471 22.3196 11.8166 20.5793 11.6973 18.9697C11.4381 15.4722 14.7376 12.1725 18.2344 12.4316ZM4.98047 12.4316C8.48264 12.1862 11.7773 15.461 11.5176 18.9688C11.3984 20.5783 10.8678 22.3186 10.7334 23.9473H8.8252L9.69922 18.3037L6.71875 23.9473H4.69141L7.91016 17.4287L1.31348 23.9473H0.00195312V22.6357L6.52051 16.0391L0.00195312 19.2578V17.2305L5.64551 14.251L0.00195312 15.124V13.2168L4.98047 12.4316ZM70.2383 0.0332031L70.2041 23.6855L64.7305 23.6514L64.7646 0L70.2383 0.0332031ZM104.061 5.5752C106.932 5.57539 109.669 7.33329 109.669 11.3877V23.6523H104.195V12.9414C104.195 11.1171 103.047 10.4074 101.695 10.4072C100.445 10.4072 99.0934 11.3873 98.3838 12.3672V23.6523H92.9102V5.94727L98.0459 5.91309L98.6875 10.1367H99.127C99.1271 6.85949 101.763 5.5752 104.061 5.5752ZM37.1465 13.8184C37.1465 17.7716 40.1196 17.6367 43.8701 17.6367H45.1543V23.6514H44.0049C39.7817 23.6512 37.8561 20.3736 37.1465 17.4004H35.8281C36.9769 18.5492 37.1465 20.8469 37.1465 22.1309V23.6514H31.6719V1.0459L37.1465 1.0127V13.8184ZM81.4473 10.4072C78.9136 10.4075 77.3596 12.367 77.3594 14.7656C77.3594 17.1645 78.9134 19.1248 81.4473 19.125C84.0152 19.125 85.5361 17.1646 85.5361 14.7656C85.5359 12.3669 84.015 10.4072 81.4473 10.4072ZM120.879 10.4062C118.345 10.4062 116.79 12.3666 116.79 14.7656C116.79 17.1645 118.345 19.124 120.879 19.124C123.447 19.1239 124.967 17.1645 124.967 14.7656C124.967 12.3667 123.447 10.4063 120.879 10.4062ZM54.7695 9.69824C52.7085 9.69825 51.3569 10.7113 50.8838 12.6709H58.1484V12.4688C58.1484 10.7793 56.5603 9.69824 54.7695 9.69824ZM7.9082 7.25488L4.68945 0.736328H6.7168L9.69727 6.37988L8.82324 0.736328H10.7314L11.5156 5.71484C11.7888 9.2154 8.47034 12.5102 4.97852 12.252C3.36887 12.1327 1.62873 11.6012 0 11.4668V9.55957L5.64355 10.4326L0 7.45312V5.42578L6.51855 8.64453L0 2.04785V0.736328H1.31152L7.9082 7.25488ZM13.5156 6.37988L16.4961 0.736328H18.5234L15.3047 7.25488L21.9014 0.736328H23.2129V2.04785L16.6943 8.64453L23.2129 5.42578V7.45312L17.5693 10.4326L23.2129 9.55957V11.4668C21.5841 11.6011 19.8441 12.1327 18.2344 12.252C14.7338 12.511 11.4384 9.21625 11.6973 5.71484C11.8165 4.10529 12.3471 2.36498 12.4814 0.736328H14.3896L13.5156 6.37988Z" fill="white"/>
</svg>
