<svg width="21" height="21" viewBox="0 0 21 21" fill="none" xmlns="http://www.w3.org/2000/svg">
<path d="M10.0364 15.2082C10.0669 15.2082 10.0974 15.2116 10.1274 15.2182C10.1951 15.2333 10.2584 15.272 10.3851 15.3494L14.5627 17.9011C14.9936 18.1642 15.209 18.2958 15.3612 18.2716C15.4932 18.2506 15.6073 18.1678 15.668 18.0487C15.7381 17.9115 15.6795 17.6659 15.5623 17.1748L14.4265 12.4132C14.3921 12.2688 14.3748 12.1966 14.3814 12.1275C14.3872 12.0664 14.4064 12.0073 14.4376 11.9544C14.4729 11.8946 14.5293 11.8463 14.6421 11.7498L18.3598 8.56515C18.7432 8.23669 18.9349 8.07246 18.959 7.92028C18.9798 7.78822 18.9362 7.65416 18.8418 7.55957C18.7329 7.45057 18.4812 7.4304 17.978 7.39005L13.0984 6.99886C12.9504 6.98699 12.8764 6.98106 12.8127 6.95346C12.7564 6.92904 12.7061 6.89252 12.6655 6.8465C12.6196 6.79445 12.5911 6.72592 12.5341 6.58886L10.6542 2.06898C10.4603 1.60281 10.3633 1.36973 10.226 1.29986C10.1664 1.26955 10.1014 1.2544 10.0364 1.25439V15.2082Z" fill="#FFCD26"/>
<path d="M10.0364 1.25439C9.97132 1.25439 9.90629 1.26955 9.84671 1.29986C9.7094 1.36973 9.61245 1.60281 9.41856 2.06898L7.53864 6.58886C7.48163 6.72592 7.45313 6.79445 7.40719 6.8465C7.36656 6.89252 7.3163 6.92904 7.25997 6.95346C7.19628 6.98106 7.1223 6.98699 6.97433 6.99885L2.09474 7.39005C1.59147 7.4304 1.33984 7.45057 1.23096 7.55957C1.13648 7.65416 1.09292 7.78822 1.11376 7.92028C1.13777 8.07246 1.32949 8.23669 1.71293 8.56515L5.43066 11.7498C5.54339 11.8463 5.59976 11.8946 5.63507 11.9544C5.66629 12.0073 5.68548 12.0664 5.6913 12.1275C5.69787 12.1966 5.68065 12.2688 5.64621 12.4132L4.51038 17.1748C4.39323 17.6659 4.33466 17.9115 4.40468 18.0487C4.46545 18.1678 4.57948 18.2506 4.71152 18.2716C4.86367 18.2958 5.07911 18.1642 5.50997 17.9011L9.68758 15.3494C9.81426 15.272 9.87761 15.2333 9.94536 15.2182C9.97532 15.2115 10.0058 15.2082 10.0364 15.2082V1.25439Z" fill="#FFCD26"/>
</svg>
