<svg width="312" height="214" viewBox="0 0 312 214" fill="none" xmlns="http://www.w3.org/2000/svg">
<path d="M277.528 0C296.373 7.65523e-06 311.65 15.277 311.65 34.1221V179.711C311.65 198.556 296.374 213.833 277.528 213.833H70.3623C51.6202 213.832 36.4232 198.651 36.3975 179.915L15.0889 169.261C5.84189 164.636 0.000141157 155.186 0 144.847V58.75C9.6539e-05 48.4111 5.84186 38.9603 15.0889 34.3359L36.5195 23.6191C37.7904 10.3652 48.9551 0.000616634 62.542 0H277.528ZM62.542 11.374C54.3847 11.3744 47.772 17.9872 47.7715 26.1445C47.7715 28.942 46.1906 31.5009 43.6885 32.752L20.1758 44.5078C14.7816 47.2053 11.3741 52.7189 11.374 58.75V144.847C11.3741 150.878 14.7816 156.391 20.1758 159.089L41.5264 169.766C45.3531 171.679 47.7713 175.59 47.7715 179.868C47.772 192.344 57.8862 202.458 70.3623 202.459H277.528C290.092 202.459 300.276 192.274 300.276 179.711V34.1221C300.276 21.5587 290.092 11.374 277.528 11.374H62.542ZM298.759 193.309C298.753 193.322 298.739 193.356 298.72 193.397C298.741 193.353 298.756 193.32 298.762 193.307L298.764 193.3C298.763 193.302 298.761 193.305 298.759 193.309ZM98.7012 20.5557C102.482 20.4052 106.819 20.5092 110.636 20.5264L129.9 20.5781L249.058 20.5908L268.436 20.5732C272.331 20.5712 276.12 20.5724 280.067 20.667C284.461 20.7726 288.484 23.0664 289.342 27.3027C289.806 29.5994 289.687 32.5554 289.683 34.9336L289.658 44.6074L289.598 144.12C289.634 152.445 289.602 160.772 289.507 169.097C289.489 174.01 289.434 178.937 289.409 183.848C289.406 184.399 289.37 184.931 289.309 185.44C289.283 185.652 289.25 185.86 289.214 186.064C289.194 186.18 289.175 186.296 289.151 186.409C288.996 187.152 288.769 187.842 288.465 188.475C288.452 188.501 288.44 188.528 288.427 188.555C288.221 188.97 287.983 189.361 287.709 189.726C286.422 191.44 284.368 192.585 281.425 193.047L281.252 193.062C280.147 193.165 278.876 193.216 277.56 193.24C275.367 193.28 273.045 193.246 271.14 193.246L204.63 193.23L134.008 193.362L112.208 193.333C110.043 193.328 107.86 193.332 105.68 193.319C103.499 193.306 101.318 193.277 99.1572 193.202C97.5968 193.171 96.4191 193.04 95.2695 192.594C95.094 192.526 94.9187 192.448 94.7432 192.364C94.6487 192.319 94.554 192.27 94.459 192.22C94.2689 192.12 94.0738 192.014 93.8789 191.894L93.1504 191.402C92.3572 190.828 91.7369 190.165 91.2529 189.438C91.0279 189.101 90.8317 188.748 90.6621 188.384C90.5087 188.054 90.3783 187.714 90.2646 187.366C90.062 186.747 89.9205 186.1 89.8203 185.438C89.6697 184.442 89.6123 183.409 89.6064 182.368C89.6004 181.275 89.6464 180.173 89.6826 179.1L89.7246 177.216L89.7754 162.472L89.7891 110.906L89.6777 39.4385C89.634 32.0694 87.6661 21.3688 98.7012 20.5557ZM277.981 184.261L277.979 184.273C277.98 184.272 277.981 184.269 277.981 184.265C277.982 184.263 277.982 184.262 277.982 184.261H277.981ZM272.485 31.9434C268.071 31.7776 263.619 31.871 259.201 31.9004L236.757 31.9629L167.901 31.9277L126.619 31.9736L115.67 31.9717C113.234 31.9669 110.687 31.894 108.29 32.1543C105.438 32.4647 103.339 35.3809 103.183 37.752C102.896 42.1226 103.01 46.5834 103.014 50.9658L103.031 75.7617C103.021 100.803 102.987 125.844 103.027 150.889C103.034 155.161 103.569 158.641 109.629 159.024C113.508 159.269 117.487 159.18 121.383 159.193L255.636 159.222C258.988 159.204 262.345 159.204 265.699 159.222C268.002 159.227 270.5 159.303 272.757 159.011C275.254 158.686 277.92 156.35 278.015 154.077C278.217 149.2 278.133 144.271 278.117 139.389L278.063 111.692L278.039 61.0449C278.041 53.3051 278.073 45.5647 278.115 37.8252C278.06 36.9697 278.098 35.9479 277.699 35.1553C276.763 33.2885 274.824 32.0315 272.485 31.9434ZM221.246 123.918C221.104 129.503 221.14 135.141 220.9 140.712C220.339 141.183 215.243 140.99 214.071 140.985L202.015 140.963C190.082 141.053 178.149 141.063 166.216 140.994L166.14 130.021C166.13 128.526 166.032 125.426 166.211 124.056C184.197 124.347 203.225 124.022 221.246 123.918ZM49.0771 71.6191C51.8964 71.6191 54.1823 73.9044 54.1826 76.7236V125.732C54.1826 128.552 51.8966 130.838 49.0771 130.838C46.2579 130.838 43.9727 128.552 43.9727 125.732V76.7236C43.973 73.9046 46.2581 71.6195 49.0771 71.6191ZM165.9 105.701C165.82 111.697 165.826 117.695 165.918 123.691C162.177 123.466 158.52 123.468 154.776 123.449L147.335 123.438C147.256 117.598 147.239 111.757 147.284 105.917C150.99 105.911 154.696 105.875 158.4 105.808C160.9 105.751 163.4 105.715 165.9 105.701ZM240.54 105.884C240.516 111.745 240.436 117.605 240.301 123.465C233.985 123.391 227.667 123.415 221.354 123.542L221.521 105.945L240.54 105.884ZM30.4658 79.7871C33.2853 79.7871 35.5712 82.0731 35.5713 84.8926V117.566C35.5708 120.385 33.285 122.672 30.4658 122.672C27.6467 122.672 25.3618 120.385 25.3613 117.566V84.8926C25.3614 82.0732 27.6464 79.7872 30.4658 79.7871ZM67.6895 79.7871C70.5089 79.7871 72.7939 82.0732 72.7939 84.8926V117.566C72.7935 120.385 70.5086 122.672 67.6895 122.672C64.8703 122.672 62.5845 120.385 62.584 117.566V84.8926C62.5841 82.0732 64.8701 79.7872 67.6895 79.7871ZM149.987 55.7129C155.552 55.6226 161.652 55.4732 167.18 55.6641C166.665 64.9864 167.051 77.3729 166.978 86.9785C161.361 86.9731 155.745 86.9159 150.13 86.8057C149.867 83.1788 149.969 78.4569 149.97 74.7715L149.987 55.7129ZM237.888 55.6133L237.65 86.9473L220.777 86.9492C220.294 77.7448 220.581 65.0448 220.737 55.7002C226.454 55.5937 232.171 55.5644 237.888 55.6133Z" fill="white"/>
</svg>
